<?xml version="1.0" encoding="UTF-8" standalone="no"?>
<svg
   xmlns:dc="http://purl.org/dc/elements/1.1/"
   xmlns:cc="http://creativecommons.org/ns#"
   xmlns:rdf="http://www.w3.org/1999/02/22-rdf-syntax-ns#"
   xmlns:svg="http://www.w3.org/2000/svg"
   xmlns="http://www.w3.org/2000/svg"
   xmlns:sodipodi="http://sodipodi.sourceforge.net/DTD/sodipodi-0.dtd"
   xmlns:inkscape="http://www.inkscape.org/namespaces/inkscape"
   width="1358.0129"
   height="653.85168"
   viewBox="0 0 1086.4103 523.08133"
   version="1.1"
   id="svg2"
   inkscape:version="0.48.2 r9819"
   sodipodi:docname="Censored_Data_Example.svg">
  <metadata
     id="metadata422">
    <rdf:RDF>
      <cc:Work
         rdf:about="">
        <dc:format>image/svg+xml</dc:format>
        <dc:type
           rdf:resource="http://purl.org/dc/dcmitype/StillImage" />
      </cc:Work>
    </rdf:RDF>
  </metadata>
  <defs
     id="defs420" />
  <sodipodi:namedview
     pagecolor="#ffffff"
     bordercolor="#666666"
     borderopacity="1"
     objecttolerance="10"
     gridtolerance="10"
     guidetolerance="10"
     inkscape:pageopacity="0"
     inkscape:pageshadow="2"
     inkscape:window-width="1920"
     inkscape:window-height="1017"
     id="namedview418"
     showgrid="false"
     fit-margin-top="0.5"
     fit-margin-right="0.5"
     fit-margin-bottom="0.5"
     fit-margin-left="0.5"
     units="cm"
     inkscape:zoom="0.44337349"
     inkscape:cx="758.23276"
     inkscape:cy="424.0716"
     inkscape:window-x="1432"
     inkscape:window-y="-8"
     inkscape:window-maximized="1"
     inkscape:current-layer="svg2" />
  <path
     style="fill:#0d14a6;fill-opacity:1"
     inkscape:connector-curvature="0"
     id="path298"
     d="m 76.813228,14.173227 c 3.59,0.02 7.19,0.02 10.78,0.01 -0.12,19.44 0.02,38.88 -0.07,58.31 70.740002,-0.36 141.510002,0.34 212.250002,-0.34 -1.02,-1.11 -4.49,-0.07 -3.91,-2.24 -0.5,0.13 -1.48,0.4 -1.98,0.53 l 0.24,-0.9 c -1.99,-1.07 -3.98,-2.22 -6.24,-2.62 0,-0.73 0,-2.2 0,-2.93 l 1.42,0.47 -0.69,-1.53 1.5,0.35 c -0.09,-0.51 -0.27,-1.55 -0.37,-2.07 l 1.46,0.21 c 0.22,-0.28 0.66,-0.83 0.88,-1.11 l -0.22,-1.41 c 1.35,0.16 2.69,0.32 4.04,0.5 -0.02,0.47 -0.07,1.41 -0.09,1.88 l 1.25,-0.29 c 0.99,1.19 1.8,3.4 4.07,3.28 l -0.49,1.31 1.48,-0.58 -0.35,1.39 c 0.51,-0.03 1.53,-0.09 2.04,-0.11 0.02,0.5 0.05,1.51 0.07,2.01 0.49,-0.02 1.47,-0.05 1.96,-0.07 -0.61,2.26 1.43,2 2.97,2.21 -0.58,-1.5 0.88,-4.57 -0.75,-5.2 0.11,-4.7 0.05,-9.41 -0.12,-14.11 3.02,0.09 6.04,0.23 9.07,0.28 l -0.13,0.92 1.15,-0.19 c -1.25,3.62 -2.02,7.39 -2.39,11.2 l -0.62,-0.08 c -0.04,2.81 -0.88,5.49 -1.53,8.2 0.63,-0.06 1.9,-0.19 2.54,-0.26 l -0.2,-1.15 c 0.47,0.07 1.43,0.22 1.91,0.29 l 0.04,-1.37 1.22,0.53 -0.14,-1.4 c 0.47,0.06 1.4,0.17 1.87,0.22 l 0.08,-1.37 1.16,0.58 0.06,-1.48 c 0.47,0.11 1.41,0.32 1.88,0.42 l -0.05,-1.41 c 0.49,0.08 1.46,0.24 1.94,0.32 l -0.14,-1.4 1.47,0.53 -0.42,-1.55 c 0.52,0.12 1.58,0.35 2.11,0.47 l -0.09,-1.36 c 0.9,0.07 1.8,0.14 2.72,0.22 0.28,1.74 1.96,3.23 1.14,5.05 l 1.28,-0.32 c 0.01,1.33 0.04,2.67 0.07,4.01 -1.17,0.61 -4.27,-0.74 -4.11,1.21 -0.73,-0.01 -2.21,-0.02 -2.94,-0.03 l -0.03,1.07 c -0.74,-0.01 -2.22,-0.03 -2.96,-0.04 l 0.01,0.93 c -0.77,0 -2.32,0.01 -3.09,0.01 l 0.14,0.93 c -1.39,0.13 -2.77,0.27 -4.15,0.4 0,0.86 0.01,1.73 0.02,2.59 0.8,0.06 2.38,0.17 3.18,0.22 l -0.24,1.25 c 0.5,-0.11 1.5,-0.33 2,-0.44 l 0.14,1.4 c 0.51,-0.11 1.53,-0.34 2.04,-0.45 l -0.18,1.49 c 0.52,-0.12 1.56,-0.34 2.07,-0.46 l 0.01,1.41 c 0.51,-0.1 1.51,-0.32 2.02,-0.43 l -0.07,1.45 c 0.5,-0.11 1.52,-0.32 2.03,-0.43 l 0.02,1.43 c 0.5,-0.11 1.51,-0.35 2.02,-0.46 l -0.14,1.45 1.33,-0.51 c -0.06,1.18 -0.12,2.35 -0.17,3.53 l -1.33,-0.55 c 0.12,0.55 0.35,1.64 0.47,2.19 -0.52,0.02 -1.56,0.05 -2.09,0.06 0.03,0.51 0.07,1.51 0.09,2.02 l -1.23,-0.01 0.16,1.34 c -1.53,-0.37 -4.04,0.1 -3.13,-2.31 -0.49,0.01 -1.48,0.02 -1.98,0.03 l 0.15,-1.26 -1.21,0.31 0.19,-1.27 -1.21,0.35 0.18,-1.09 c -2.81,-0.15 -3.31,-4.16 -6.13,-4.23 l 0.19,-1.13 -1.28,0.37 c -0.48,-0.74 -1.43,-2.23 -1.9,-2.97 -0.41,6.96 -0.01,13.92 -0.02,20.890003 -1.82,-0.66 -5.46,0.94 -6.14,-1.04 -0.75,0.04 -2.23,0.14 -2.98,0.18 0.12,-1.730003 0.22,-3.460003 0.31,-5.180003 1.56,-2.17 1.44,-6.03 2.21,-8.9 1.24,-1.19 0.47,-3.71 1,-5.41 -0.63,0.11 -1.9,0.32 -2.53,0.43 l 0.28,1.1 -1.36,-0.6 0.32,1.57 c -0.53,-0.12 -1.6,-0.37 -2.13,-0.49 l 0.12,1.55 c -0.54,-0.14 -1.62,-0.42 -2.15,-0.55 l 0.41,1.58 -1.45,-0.58 0.17,1.51 c -0.54,-0.13 -1.61,-0.4 -2.14,-0.53 l 0.41,1.58 -1.43,-0.58 0.12,1.44 c -0.53,-0.12 -1.59,-0.34 -2.12,-0.46 l 0.4,0.92 c -0.73,0.42 -2.19,1.26 -2.92,1.67 -1.29,-0.81 -1.66,-1.86 -1.13,-3.16 l -1.44,-0.11 c 0.12,-0.48 0.37,-1.43 0.49,-1.9 l -1.14,0.1 c -0.15,-1.38 -0.29,-2.77 -0.43,-4.15 0.65,0.01 1.94,0.03 2.59,0.03 l -0.53,-0.86 c 1.97,-0.25 3.93,-0.55 5.87,-1 -68.84,-0.65 -137.71,-0.13 -206.570002,-0.26 -0.27,-0.38 -0.8,-1.14 -1.07,-1.53 -0.68,23.180003 -0.14,46.390003 -0.28,69.580003 110.150002,-0.22 220.300002,-0.11 330.450002,-0.05 0.04,-0.57 0.12,-1.71 0.16,-2.28 l -1.41,0.69 0.11,-1.63 c -0.5,0.12 -1.5,0.35 -2,0.46 l 0,-1.46 c -0.49,0.11 -1.46,0.32 -1.95,0.43 l -0.08,-1.42 c -0.48,0.11 -1.43,0.33 -1.91,0.44 l -0.14,-1.4 c -0.5,0.09 -1.5,0.28 -2,0.38 l 0.22,-1.48 c -0.5,0.12 -1.51,0.37 -2.01,0.49 -0.61,-2.07 0.06,-3.16 1.99,-3.26 -0.09,-0.52 -0.28,-1.54 -0.37,-2.05 l 1.56,0.43 -0.6,-1.52 1.35,0.25 c -0.01,-0.52 -0.02,-1.55 -0.02,-2.06 1.3,0.03 2.61,0.07 3.93,0.12 0.38,2.28 3.27,4.57 5.28,4.9 l -0.44,1.33 1.48,-0.61 -0.52,1.55 1.5,-0.59 -0.42,1.47 c 0.52,-0.04 1.57,-0.12 2.09,-0.16 0.04,0.5 0.11,1.52 0.14,2.03 0.52,-0.03 1.55,-0.08 2.07,-0.11 l -0.39,1.17 c 0.57,0.05 1.73,0.16 2.3,0.21 -0.07,-6.42 -0.16,-12.84 -0.17,-19.26 1.88,0.66 5.57,-1 6.36,1 0.69,-0.07 2.09,-0.21 2.78,-0.29 -0.04,1.09 -0.13,3.28 -0.17,4.37 l -0.79,0.02 c -0.09,1.64 -0.16,3.28 -0.2,4.93 l -0.8,-0.12 c -0.76,3.41 -0.07,8.06 -3.19,10.19 2.12,0.12 4.15,-0.46 6.07,-1.3 l -0.13,-1.11 1.21,0.54 0.03,-1.35 c 0.46,0.05 1.38,0.15 1.85,0.2 l -0.06,-1.37 1.27,0.56 0.01,-1.52 c 0.5,0.12 1.52,0.37 2.03,0.5 l -0.46,-1.6 1.4,0.61 -0.06,-1.4 c 0.52,0.1 1.55,0.29 2.07,0.39 l -0.32,-1.5 c 0.53,0.1 1.59,0.3 2.12,0.39 l -0.04,-1.43 2.2,0.54 c -0.1,0.47 -0.28,1.41 -0.38,1.88 l 1.29,-0.24 c -0.52,1.86 -0.05,2.93 1.39,3.19 -0.17,0.44 -0.52,1.33 -0.69,1.78 l 2.36,0.4 c -3.08,1.58 -6.69,3.65 -10.13,3.43 l 0.14,1.06 c -3.34,-0.27 -6.05,2.32 -9.18,2.16 0.05,0.54 0.15,1.62 0.2,2.16 0.49,-0.07 1.46,-0.21 1.95,-0.28 l 0.16,1.29 c 0.46,-0.08 1.38,-0.25 1.85,-0.33 l 0.13,1.32 c 0.46,-0.07 1.37,-0.21 1.83,-0.28 l 0.22,1.29 c 0.45,-0.09 1.37,-0.25 1.82,-0.33 l 0.15,1.3 c 0.45,-0.07 1.36,-0.2 1.81,-0.27 l 0.2,1.24 c 2.26,-0.37 3.94,2.11 6.72,2.34 0.01,0.68 0.03,2.04 0.03,2.72 -0.48,-0.01 -1.46,-0.04 -1.95,-0.05 0.04,0.5 0.11,1.5 0.15,2 -1.65,-0.46 -1.55,2.29 -2.48,3.14 -1.23,-0.06 -2.46,-0.11 -3.67,-0.16 -0.02,-0.5 -0.07,-1.51 -0.1,-2.01 -0.51,0.02 -1.53,0.06 -2.03,0.09 l 0.38,-1.37 c -0.26,-0.25 -0.79,-0.76 -1.05,-1.02 -1.67,0.49 -2.34,-0.08 -1.99,-1.71 -3.28,-0.27 -4.55,-4.87 -8.17,-5.56 0,6.59 -0.02,13.18 0.04,19.78 -3.01,-0.19 -6.03,-0.36 -9.05,-0.45 0.01,-0.96 0.02,-2.89 0.03,-3.85 1.78,-1.8 1.46,-6.09 2.2,-8.89 1.63,-0.22 0.32,-2.84 0.85,-3.96 0.26,-0.82 0.79,-2.46 1.05,-3.28 -0.58,0.07 -1.75,0.2 -2.33,0.27 l 0.23,1.15 c -0.49,-0.09 -1.47,-0.27 -1.96,-0.37 l 0.08,1.42 -1.29,-0.57 0.09,1.48 c -0.49,-0.1 -1.48,-0.29 -1.98,-0.39 l 0.12,1.42 -1.29,-0.49 0.11,1.5 c -0.52,-0.12 -1.56,-0.35 -2.08,-0.46 l 0.29,1.49 c -0.53,-0.1 -1.59,-0.31 -2.12,-0.41 l 0.19,1.57 -1.3,-0.68 0.03,1.51 c -0.5,-0.15 -1.5,-0.43 -2,-0.58 l 0.37,1.3 -2.71,0.09 0.64,-1.3 -1.55,0.31 c 0.17,-0.52 0.5,-1.56 0.67,-2.08 l -1.52,0.03 c 0.13,-0.53 0.41,-1.58 0.54,-2.1 l -1.27,0.25 c -0.08,-1.3 -0.14,-2.6 -0.2,-3.89 1.71,-0.28 3.44,-0.55 5.15,-0.92 -107.7,-0.68 -215.45,-0.15 -323.170002,-0.27 -0.22,-0.4 -0.67,-1.21 -0.9,-1.62 -0.54,28.01 -0.54,56.09 0,84.1 0.23,-0.41 0.68,-1.22 0.9,-1.62 116.400002,-0.07 232.810002,0.31 349.200002,-0.19 -1.02,-0.39 -2.06,-0.72 -3.12,-0.96 l 0.14,-1.15 -1.08,0.54 -0.25,-1.27 c -0.46,0.08 -1.39,0.24 -1.86,0.32 l 0.01,-1.4 c -0.48,0.1 -1.45,0.3 -1.93,0.4 l -0.08,-1.43 c -0.49,0.12 -1.46,0.37 -1.95,0.49 l 0.09,-1.38 c -0.55,0.05 -1.65,0.14 -2.21,0.19 0.04,-1.04 0.09,-2.06 0.14,-3.09 l 1.24,0.13 -0.5,-1.38 1.57,0.36 c -0.14,-0.54 -0.42,-1.61 -0.55,-2.15 1.72,0.23 2.41,-0.48 2.07,-2.14 1.06,0.07 2.14,0.13 3.22,0.2 0,0.48 -0.01,1.43 -0.01,1.91 0.51,-0.03 1.55,-0.07 2.07,-0.1 l -0.35,1.43 1.55,-0.56 -0.47,1.54 c 0.53,-0.08 1.6,-0.24 2.14,-0.32 0,0.52 0.01,1.55 0.01,2.07 0.51,0 1.53,-0.01 2.04,-0.02 0.01,0.52 0.03,1.56 0.04,2.08 0.52,-0.06 1.57,-0.16 2.1,-0.22 l -0.26,1.36 c 0.52,-0.05 1.55,-0.14 2.07,-0.18 -0.02,0.47 -0.07,1.42 -0.09,1.89 0.59,0.12 1.79,0.35 2.39,0.46 -0.11,-6.46 -0.16,-12.92 -0.23,-19.39 2.34,0.08 4.69,0.12 7.04,0.18 l 0.12,0.96 c 0.52,-0.12 1.56,-0.36 2.08,-0.49 -0.61,2.04 0.5,5.43 -1.23,6.56 -0.03,1.3 -0.06,2.6 -0.1,3.91 l -0.87,-0.07 c -0.08,1.68 -0.15,3.35 -0.21,5.03 l -0.79,-0.03 c -0.07,1.43 -0.17,2.86 -0.3,4.29 0.61,-0.08 1.82,-0.25 2.43,-0.34 l -0.21,-1.19 c 0.51,0.13 1.53,0.37 2.04,0.49 l -0.22,-1.49 1.37,0.57 -0.21,-1.52 c 0.53,0.11 1.57,0.35 2.09,0.47 l -0.27,-0.97 c 0.76,-0.91 3.82,-0.78 3.11,-2.34 1.57,0.21 2.66,-1.12 4.15,-1.39 -0.02,-0.38 -0.05,-1.14 -0.07,-1.52 0.83,-0.03 2.49,-0.08 3.32,-0.11 l -0.57,1.35 1.54,-0.44 c -0.17,0.54 -0.5,1.61 -0.67,2.15 l 1.09,-0.08 c 0.37,2 1.39,3.81 1.57,5.87 -0.85,0.04 -2.53,0.12 -3.38,0.16 l 0.12,0.77 c -2.14,0.12 -4.09,1.04 -6.17,1.39 l 0.09,0.5 c -2.32,0.47 -4.52,1.41 -6.91,1.45 l -0.06,1.29 -1.28,-0.82 c 0.09,0.65 0.28,1.97 0.38,2.62 0.49,-0.11 1.49,-0.33 1.99,-0.44 l -0.05,1.53 c 0.48,-0.14 1.45,-0.42 1.94,-0.56 l 0.14,1.51 c 0.45,-0.11 1.34,-0.34 1.78,-0.46 l 0.3,1.39 c 0.47,-0.1 1.42,-0.28 1.89,-0.38 l -0.06,1.51 c 0.5,-0.15 1.48,-0.45 1.97,-0.6 l 0.06,1.53 c 0.49,-0.12 1.48,-0.36 1.98,-0.48 l -0.01,1.33 c 1.62,-0.56 2.7,0.89 4.18,1.26 -0.07,0.93 -0.13,1.87 -0.19,2.81 l -1.34,-0.29 0.61,1.41 -1.49,-0.27 c 0.12,0.52 0.36,1.56 0.49,2.08 l -1.56,-0.26 c -0.24,0.28 -0.73,0.82 -0.98,1.1 l 0.34,1.78 c -1.06,-0.58 -2.14,-0.73 -3.22,-0.46 l 0.35,-1.42 -1.44,0.49 0.38,-1.42 c -0.51,0.04 -1.52,0.1 -2.03,0.13 0.94,-2.88 -4.09,-2.04 -3.18,-4.89 -0.49,0.01 -1.46,0.03 -1.95,0.03 0.05,-1.45 -0.67,-2.12 -2.17,-2 l 0.34,-1.19 c -1.49,-0.12 -2.73,-1.16 -4.18,-1.5 0.17,1.73 0.4,3.45 0.71,5.17 0.2,4.84 0.07,9.69 0.12,14.53 -3.64,-0.33 -7.49,0.26 -10.76,-1.72 3.31,0.29 1.46,-3.6 2.14,-5.4 1.76,0.03 0.35,-2.88 0.89,-3.98 l 0.69,-0.01 c 0.42,-3.15 1.16,-6.24 1.7,-9.36 -0.62,0.12 -1.84,0.37 -2.46,0.49 l 0.11,1.08 -1.21,-0.55 0.05,1.43 c -0.48,-0.08 -1.45,-0.25 -1.93,-0.34 1.07,2.21 -4.07,1.18 -3.01,3.46 -0.47,-0.1 -1.41,-0.31 -1.88,-0.41 l 0.05,1.4 -1.21,-0.49 -0.03,1.44 c -0.47,-0.09 -1.41,-0.28 -1.89,-0.38 l 0.16,1.41 -1.49,-0.71 0.55,1.48 c -0.85,-0.01 -2.55,-0.02 -3.4,-0.03 0.1,-0.48 0.29,-1.46 0.39,-1.95 l -1.44,-0.05 c 0.13,-0.5 0.4,-1.49 0.54,-1.99 l -0.97,0.11 c -0.43,-1.31 -0.92,-2.59 -1.46,-3.85 1.93,-1.68 4.67,-1.77 6.91,-2.89 -114.7,-0.61 -229.43,0.07 -344.130002,-0.34 -0.1,27.08 0.08,54.16 -0.09,81.25 154.170002,-0.35 308.350002,0.06 462.520002,-0.21 -1.79,-0.68 -3.27,-2.3 -5.3,-2.04 l 0.19,-1.3 c -0.5,0.13 -1.52,0.4 -2.02,0.54 l 0.01,-1.55 c -0.47,0.13 -1.42,0.41 -1.89,0.54 -0.49,-1.27 -1.58,-2.22 -3.27,-2.86 l 2.41,-0.47 c -0.12,-0.49 -0.35,-1.46 -0.47,-1.95 l 1.58,0.29 c 0.25,-0.24 0.75,-0.71 1,-0.95 l -0.64,-1.52 1.41,0.33 c -0.06,-0.52 -0.17,-1.55 -0.23,-2.07 1.09,-0.05 2.19,-0.11 3.29,-0.15 l -0.36,1.32 1.4,-0.44 -0.34,1.38 c 0.52,-0.04 1.56,-0.12 2.08,-0.16 0,0.5 0.02,1.5 0.03,1.99 0.5,0 1.51,0 2.01,0 0.02,0.49 0.07,1.46 0.09,1.95 0.55,0.01 1.66,0.04 2.21,0.05 l -0.56,1.34 c 0.54,-0.07 1.63,-0.21 2.18,-0.28 0.01,0.5 0.03,1.51 0.04,2.01 0.51,0 1.53,-0.01 2.04,-0.02 -0.02,0.47 -0.06,1.4 -0.08,1.86 1.03,0.12 2.08,0.25 3.13,0.38 -0.19,-5.1 -0.21,-10.2 -0.16,-15.3 l -0.79,0.14 c 0.04,-1.03 0.1,-3.07 0.13,-4.09 2.25,-0.14 4.61,0.64 6.79,-0.18 l -0.14,1.23 c 0.77,-0.07 2.31,-0.2 3.08,-0.27 -0.03,1.04 -0.08,3.14 -0.1,4.18 l -0.87,0.01 c -0.03,1.35 -0.06,2.7 -0.08,4.06 l -0.85,-0.03 c -0.09,1.65 -0.19,3.29 -0.25,4.95 -1.53,1.42 -0.94,4.67 -1.86,6.62 1.69,-0.51 3.23,-1.43 4.98,-1.74 l -0.14,-1.13 1.32,0.46 -0.21,-1.41 c 0.5,0.1 1.5,0.29 2,0.39 l 0,-1.37 c 0.48,0.07 1.45,0.19 1.93,0.25 -0.85,-3.09 5,-1.62 3.98,-4.31 l 1.42,0.7 -0.43,-1.38 c 0.7,0.01 2.08,0.03 2.78,0.04 0.4,1.62 1.76,3.11 1.25,4.88 l 1.14,-0.1 c 0.08,1.36 0.18,2.72 0.27,4.09 -0.78,0.02 -2.35,0.08 -3.14,0.1 -0.7,2.12 -5.3,1.01 -6.01,2.82 -2.99,-0.15 -5.37,2.42 -8.24,2.03 0.07,0.55 0.2,1.64 0.27,2.19 0.46,-0.07 1.38,-0.2 1.83,-0.26 l 0.22,1.26 c 0.49,-0.08 1.47,-0.23 1.96,-0.31 l -0.12,1.48 c 0.47,-0.14 1.42,-0.42 1.89,-0.57 l 0.23,1.43 c 0.48,-0.08 1.46,-0.25 1.94,-0.33 l -0.1,1.44 c 0.48,-0.11 1.45,-0.32 1.94,-0.43 l 0.18,1.47 c 0.45,-0.15 1.37,-0.45 1.82,-0.6 l 0.12,1.54 c 0.5,-0.12 1.5,-0.37 2.01,-0.49 l -0.04,1.52 c 0.51,-0.14 1.52,-0.43 2.02,-0.58 l -0.19,1.18 2.69,0.66 -2.84,0.73 c 0.13,0.46 0.39,1.38 0.52,1.85 l -1.54,-0.42 0.64,1.47 -1.41,-0.31 c 0.03,0.53 0.1,1.6 0.14,2.13 -1.74,-0.29 -2.43,0.48 -2.07,2.33 l -1.96,-0.47 0.24,-1.16 -1.42,0.58 0.43,-1.61 -1.5,0.61 c 0.42,-1.82 -0.24,-2.45 -1.98,-1.9 l 0.44,-1.42 c -0.53,0.01 -1.57,0.03 -2.1,0.04 -0.03,-0.49 -0.11,-1.49 -0.15,-1.99 -0.49,0.02 -1.47,0.05 -1.96,0.07 -0.03,-0.5 -0.08,-1.51 -0.1,-2.01 -0.54,0.01 -1.61,0.02 -2.14,0.03 0.41,-1.69 -0.23,-2.27 -1.94,-1.75 l 0.46,-1.23 c -0.61,-0.09 -1.83,-0.25 -2.44,-0.33 0.12,6.5 0.15,13.01 0.22,19.52 -3.06,-0.26 -6.13,-0.35 -9.18,-0.47 0.1,-1.62 0.17,-3.23 0.26,-4.83 l 0.8,-0.03 c 0.04,-1.31 0.1,-2.62 0.16,-3.92 1.53,-1.99 1.55,-6.17 2.17,-9.07 l 0.62,0.07 0.2,-2.15 c -0.57,0.04 -1.72,0.1 -2.29,0.13 l 0.17,1.38 -1.37,-0.56 c -0.18,0.33 -0.53,1 -0.71,1.34 l -1.02,-0.44 0.07,1.49 c -0.49,-0.11 -1.47,-0.32 -1.96,-0.43 l 0.24,0.93 c -2.46,1.16 -5.5,2.52 -6.37,4.5 -0.47,-0.14 -1.42,-0.4 -1.89,-0.54 l 0.33,1.39 c -0.81,-0.02 -2.42,-0.07 -3.22,-0.09 -0.01,-0.79 -0.03,-2.38 -0.04,-3.17 l -1.35,0.24 c 0.18,-0.52 0.53,-1.58 0.7,-2.1 l -1.34,0.28 c -0.06,-1.3 -0.11,-2.58 -0.16,-3.87 3.1,-0.56 6.15,-1.37 9.19,-2.17 -153.45,-0.98 -306.97,-0.06 -460.450002,-0.47 0.08,22.47 0.01,44.93 0.04,67.39 168.230002,0.16 336.380002,-0.97 504.590002,-0.85 -0.11,-1.13 -0.22,-2.25 -0.33,-3.37 l -0.9,0.15 c 0,-0.75 -0.01,-2.23 -0.01,-2.97 l -1.04,-0.04 c 0,-0.7 0,-2.1 0,-2.8 -1.64,-0.51 -1.52,-3.73 -2.13,-5.41 l -0.56,0.28 c -0.31,-1.25 -0.66,-2.48 -1.05,-3.69 -0.08,-0.59 -0.24,-1.76 -0.31,-2.35 l -0.77,0.1 c -0.11,-1.84 -1.12,-3.43 -1.3,-5.24 l -0.72,0.22 c -0.17,-1.73 -0.32,-3.46 -0.53,-5.17 2.56,0.52 1.89,3.84 4.63,2.99 l -0.53,1.44 1.68,-0.69 -0.59,1.6 c 0.54,-0.09 1.62,-0.28 2.16,-0.37 0.03,0.52 0.09,1.56 0.11,2.08 0.54,-0.05 1.61,-0.15 2.15,-0.19 l -0.34,1.44 c 0.54,-0.11 1.63,-0.34 2.17,-0.45 l -0.3,1.54 1.35,-0.53 -0.24,1.47 1.47,-0.6 -0.35,1.55 c 0.53,-0.12 1.58,-0.34 2.11,-0.45 l -0.16,1.52 c 0.53,-0.13 1.59,-0.39 2.12,-0.51 l -0.3,1.6 1.39,-0.64 -0.14,1.46 c 0.47,-0.11 1.4,-0.34 1.86,-0.45 -0.83,2.33 4.15,1.19 3.2,3.46 0.47,-0.11 1.42,-0.33 1.89,-0.44 l 0.09,1.4 c 0.48,-0.08 1.45,-0.24 1.93,-0.32 l -0.01,1.51 c 0.52,-0.15 1.58,-0.44 2.1,-0.59 l -0.32,0.94 c 2.35,1.47 5.97,2.09 7.46,4.23 0.7,0.03 2.1,0.09 2.8,0.12 l -0.06,1.28 c 0.5,-0.13 1.5,-0.37 2,-0.49 l 0.02,1.36 c 1.61,-0.83 2.68,0.81 4.18,1.14 l -0.09,0.94 c 0.49,-0.15 1.48,-0.45 1.97,-0.6 l -0.06,1.28 c 0.74,0.03 2.23,0.09 2.98,0.12 l 0.06,1.07 c 1.68,-0.25 4.07,0.66 4.99,1.84 0.75,0.04 2.27,0.11 3.03,0.14 0,0.91 0.02,1.81 0.04,2.73 -0.78,0.03 -2.33,0.09 -3.11,0.12 l 0.03,0.61 c -1.75,0.25 -3.22,1.82 -5.03,1.19 l 0.08,1.17 c -0.75,0.01 -2.24,0.04 -2.99,0.05 l -0.01,1.33 c -0.49,-0.15 -1.47,-0.45 -1.96,-0.6 l -0.04,1.5 c -0.47,-0.13 -1.4,-0.4 -1.86,-0.53 l -0.23,1.45 c -0.47,-0.1 -1.4,-0.31 -1.87,-0.42 l -0.18,1.37 c -0.48,-0.1 -1.45,-0.3 -1.93,-0.41 l 0.05,1.47 c -0.51,-0.13 -1.54,-0.38 -2.06,-0.51 l 0.07,1.39 c -0.5,-0.08 -1.5,-0.25 -2,-0.34 l -0.08,1.4 c -0.49,-0.1 -1.47,-0.31 -1.97,-0.41 l -0.05,1.37 c -0.51,-0.09 -1.53,-0.28 -2.04,-0.37 l 0.15,1.47 c -0.52,-0.12 -1.57,-0.37 -2.09,-0.5 l 0.13,1.46 c -0.51,-0.11 -1.53,-0.32 -2.04,-0.42 l -0.04,1.48 c -0.49,-0.1 -1.49,-0.29 -1.99,-0.38 l 0.1,1.38 c -0.5,-0.07 -1.5,-0.22 -2,-0.3 l -0.02,1.39 c -2.06,-1.17 -2.79,2.92 -5.08,1.67 l 0.06,1.28 c -0.48,-0.08 -1.45,-0.24 -1.93,-0.32 -0.04,3.37 -6.56,2.79 -6.23,6.06 -0.56,-0.02 -1.67,-0.06 -2.22,-0.08 l 0.52,1.39 -1.44,-0.59 0.26,1.48 c -0.54,-0.12 -1.62,-0.35 -2.16,-0.46 l 0.5,1.59 -1.6,-0.62 c -0.25,0.25 -0.74,0.74 -0.99,0.98 l 0.31,1.49 c -0.51,-0.06 -1.53,-0.18 -2.04,-0.24 l 0.11,1.33 c -0.37,0.04 -1.11,0.14 -1.48,0.18 0.18,-1.52 0.34,-3.04 0.49,-4.55 l 1.06,0.05 c -0.51,-1.78 0.82,-3.29 1.05,-5 l 0.65,0.04 c 0.03,-2.1 0.98,-3.97 1.38,-5.99 l 0.55,0.23 c 0.15,-1.87 1.18,-3.5 1.35,-5.35 l 0.82,0.13 c 0,-0.73 -0.01,-2.17 -0.01,-2.89 l 1.02,-0.12 c -0.01,-0.74 -0.02,-2.2 -0.02,-2.93 l 1.02,0.08 c 0.03,-0.81 0.11,-2.45 0.15,-3.26 -168.18,0.08 -336.35,0.25 -504.530002,0.21 0.04,18.24 0.01,36.48 0.02,54.71 280.520002,-0.08 561.040002,-0.02 841.560002,-0.02 -0.01,3.48 0.01,6.97 0.01,10.47 -284.1,0.01 -568.19,-0.02 -852.280002,0.01 0.02,-150.77 0.07,-301.54 -0.03,-452.310003 z" />
  <path
     style="fill:#0d1428"
     inkscape:connector-curvature="0"
     id="path300"
     d="m 636.91323,45.963227 c 13.67,1.25 29.34,6.62 34.96,20.36 8.74,21.78 3.17,46.210003 -4.19,67.580003 -4.76,13.53 -12.54,28.66 -6.15,42.94 4.45,6.03 11.14,9.69 16.33,14.99 -0.04,1.23 -0.07,2.46 -0.09,3.7 -5.28,5.59 -12.85,9.02 -16.68,15.89 -5.45,13.89 1.67,28.34 6.4,41.36 8.2,24.19 15.55,54.52 -1.04,76.81 -8.08,7.34 -18.89,10.69 -29.56,11.74 -0.02,-1.56 -0.02,-3.12 -0.02,-4.66 12.21,-0.89 26.33,-5.83 31.22,-18.13 6.61,-16.6 3.63,-35.11 -0.78,-51.87 -4.43,-16.82 -14.69,-32.91 -12.18,-50.92 1.33,-10.39 10.99,-16.05 18.34,-22.12 -6.71,-5.94 -15.79,-10.68 -17.87,-20.18 -3.3,-14.85 3.62,-29.25 8.56,-42.91 6.21,-18.67 10.99,-39.320003 5.12,-58.690003 -3.68,-14.39 -19.16,-20.24 -32.5,-21.56 0.04,-1.08 0.1,-3.25 0.13,-4.33 z" />
  <path
     style="fill:#0d1428"
     inkscape:connector-curvature="0"
     id="path302"
     d="m 763.10323,182.26323 c -2.96,-3.69 0.08,-7.37 4.3,-6.08 0.37,0.72 1.11,2.17 1.48,2.89 -1.13,2.26 -3.29,3.36 -5.78,3.19 z" />
  <path
     style="fill:#0d1428"
     inkscape:connector-curvature="0"
     id="path304"
     d="m 929.88323,176.07323 c 1.52,0.04 3.05,0.12 4.58,0.25 0.31,0.59 0.93,1.76 1.25,2.35 -0.24,0.67 -0.71,2.01 -0.95,2.67 -2,0.99 -4.08,0.41 -6.04,-0.32 0.19,-1.69 0.59,-3.35 1.16,-4.95 z" />
  <path
     style="fill:#0d1428"
     inkscape:connector-curvature="0"
     id="path306"
     d="m 939.17323,176.19323 c 1.98,0 3.96,-0.01 5.97,-0.02 -0.05,8.92 -0.02,17.84 -0.02,26.76 -2,-0.02 -3.98,-0.02 -5.96,0.03 0.09,-8.93 0.06,-17.85 0.01,-26.77 z" />
  <path
     style="fill:#0d1428"
     inkscape:connector-curvature="0"
     id="path308"
     d="m 740.05323,177.36323 c 6.5,0.02 13.01,0.02 19.51,0.04 -0.02,1.63 -0.02,3.25 0.02,4.89 -2.31,-0.01 -4.61,-0.05 -6.9,-0.07 0.09,6.92 -0.02,13.83 0.09,20.75 -2,-0.05 -3.99,-0.06 -5.96,-0.03 0.06,-6.89 0,-13.79 0.04,-20.68 -2.28,0 -4.57,0.01 -6.85,0.02 0.01,-1.65 0.03,-3.29 0.05,-4.92 z" />
  <path
     style="fill:#0d1428"
     inkscape:connector-curvature="0"
     id="path310"
     d="m 891.17323,177.37323 c 5.24,0 10.49,0.02 15.74,0 0,1.63 0,3.27 0.03,4.91 -3.3,-0.03 -6.58,-0.02 -9.86,-0.01 0,1.9 0.01,3.81 0.04,5.72 2.99,0.01 5.98,0.01 8.98,-0.01 0.01,1.65 0.04,3.3 0.09,4.96 -3.05,-0.04 -6.1,-0.03 -9.14,-0.06 0.08,3.34 0.04,6.69 0.08,10.03 -2,0 -3.99,0.01 -5.96,0.05 0.06,-8.53 0.06,-17.06 0,-25.59 z" />
  <path
     style="fill:#0d1428"
     inkscape:connector-curvature="0"
     id="path312"
     d="m 722.38323,178.40323 c 2.45,-0.01 4.9,-0.02 7.36,-0.03 -0.05,4.77 -0.03,9.54 -0.05,14.31 0.73,-0.07 2.2,-0.21 2.93,-0.28 -0.05,1.58 -0.06,3.17 -0.04,4.76 -0.73,-0.05 -2.18,-0.14 -2.9,-0.19 0.02,1.99 0.04,3.99 0.09,5.99 -1.94,-0.05 -3.87,-0.05 -5.78,-0.02 0.02,-1.97 0.05,-3.94 0.1,-5.9 -3.65,0.03 -7.29,0.01 -10.93,0.12 0.01,-0.94 0.03,-2.83 0.04,-3.77 3.01,-5.03 6.32,-9.87 9.18,-14.99 m -3.71,14.17 c 1.79,-0.01 3.58,0 5.39,0.02 -0.08,-3.44 -0.02,-6.89 0.21,-10.32 -1.37,3.68 -3.39,7.07 -5.6,10.3 z" />
  <path
     style="fill:#0d1428"
     inkscape:connector-curvature="0"
     id="path314"
     d="m 848.98323,180.76323 c 1.94,-0.41 3.89,-0.88 5.82,-1.4 -0.07,1.69 -0.1,3.38 -0.14,5.08 1.35,-0.04 2.71,-0.06 4.08,-0.09 -0.01,1.54 -0.02,3.09 -0.01,4.64 -1.36,-0.07 -2.71,-0.14 -4.05,-0.2 -0.01,3.13 -0.02,6.27 0.43,9.38 0.91,-0.01 2.73,-0.01 3.64,-0.02 -0.03,1.62 -0.04,3.25 -0.04,4.88 -9.42,2.72 -10.85,-7.51 -9.62,-14.27 -0.61,0.06 -1.84,0.19 -2.46,0.25 0.01,-1.54 0.02,-3.08 0.04,-4.61 0.61,0.01 1.83,0.05 2.43,0.07 -0.05,-1.24 -0.09,-2.47 -0.12,-3.71 z" />
  <path
     style="fill:#0d1428"
     inkscape:connector-curvature="0"
     id="path316"
     d="m 807.19323,185.50323 c 3.64,-1.86 7.79,-1.98 11.41,0.02 1.99,2.93 2.79,6.4 2.58,9.92 -4.03,0.05 -8.06,0 -12.08,0.02 0.48,0.92 0.97,1.85 1.47,2.78 2.97,0.39 5.99,0.34 8.97,-0.11 0.19,1.32 0.38,2.64 0.6,3.97 -11.11,6.21 -22.65,-7.77 -12.95,-16.6 m 3.42,2.58 c -0.59,1.1 -1.19,2.18 -1.78,3.27 2.46,0.02 4.93,0.01 7.41,-0.05 -0.55,-1.09 -1.1,-2.19 -1.61,-3.28 -1.35,-0.01 -2.7,0 -4.02,0.06 z" />
  <path
     style="fill:#0d1428"
     inkscape:connector-curvature="0"
     id="path318"
     d="m 985.29323,189.87323 c 3.49,-10.62 20.14997,-5.41 16.88997,5.55 -4.21997,0.05 -8.44997,-0.04 -12.64997,0.24 2.41,3.91 7.18,2.95 11.01997,2.51 0.18,1.3 0.39,2.62 0.59,3.94 -8.24997,4.12 -20.03997,-2.37 -15.84997,-12.24 m 5.97,-1.61 c -0.4,1.06 -0.78,2.12 -1.15,3.19 2.37,-0.04 4.75,-0.09 7.14,-0.13 -0.54,-1.11 -1.1,-2.21 -1.61,-3.31 -1.48,0 -2.94,0.08 -4.38,0.25 z" />
  <path
     style="fill:#0d1428"
     inkscape:connector-curvature="0"
     id="path320"
     d="m 762.01323,184.31323 c 1.96,0.05 3.94,0.07 5.92,0.08 -0.05,6.18 -0.05,12.36 -0.01,18.54 -1.97,-0.02 -3.94,-0.02 -5.89,0.02 0.02,-6.21 0.03,-12.43 -0.02,-18.64 z" />
  <path
     style="fill:#0d1428"
     inkscape:connector-curvature="0"
     id="path322"
     d="m 772.16323,184.34323 c 1.65,0.03 3.3,0.04 4.97,0.02 -0.03,0.61 -0.1,1.84 -0.13,2.46 2.3,-2.16 5.27,-3.02 8.39,-2.52 0.82,0.93 1.67,1.85 2.52,2.77 10.99,-9.67 13.97,7.91 12.01,15.88 -1.93,-0.04 -3.84,-0.05 -5.74,-0.02 0.04,-4.12 0.03,-8.23 -0.01,-12.34 -0.33,-0.39 -0.99,-1.16 -1.32,-1.55 -0.89,0.06 -1.77,0.13 -2.64,0.2 -0.33,0.46 -0.99,1.39 -1.32,1.85 0.02,3.95 0.01,7.9 0.03,11.85 -1.94,-0.04 -3.86,-0.03 -5.78,0.02 0.06,-4.55 0.37,-9.13 -0.38,-13.64 -1.19,-0.08 -2.36,-0.17 -3.53,-0.26 -2.66,4.08 -0.77,9.27 -1.29,13.87 -1.94,-0.02 -3.87,0 -5.79,0.07 0.09,-6.22 0.07,-12.44 0.01,-18.66 z" />
  <path
     style="fill:#0d1428"
     inkscape:connector-curvature="0"
     id="path324"
     d="m 823.95323,192.56323 c -1.58,-7.34 6.45,-9.66 12.12,-8.05 -0.1,1.58 -0.25,3.15 -0.38,4.74 -2.01,-0.67 -4.08,-1.1 -6.19,-0.88 0.07,0.59 0.21,1.76 0.28,2.35 2.33,0.92 4.63,1.93 6.87,3.08 0.33,1.92 0.41,3.87 0.21,5.82 -2.96,4.34 -9,3.85 -13.42,2.31 0.27,-1.36 0.52,-2.73 0.76,-4.1 2.29,0.5 4.58,1.04 6.93,1.3 0.01,-0.69 0.04,-2.05 0.05,-2.73 -2.58,-0.94 -5.02,-2.23 -7.23,-3.84 z" />
  <path
     style="fill:#0d1428"
     inkscape:connector-curvature="0"
     id="path326"
     d="m 866.66323,184.91323 c 12.16,-6.03 19.45,14.75 6.63,17.71 -11.37,4.59 -17.67,-14.3 -6.63,-17.71 m 3.13,3.39 c -4.65,1.26 -4.29,11.45 1.42,10.27 4.55,-1.11 3.73,-10.79 -1.42,-10.27 z" />
  <path
     style="fill:#0d1428"
     inkscape:connector-curvature="0"
     id="path328"
     d="m 909.57323,185.72323 c 5.03,-2.49 13,-2.54 15.17,3.76 -0.09,4.49 -0.09,8.99 0.12,13.48 -1.71,-0.03 -3.41,-0.04 -5.1,-0.02 -0.03,-0.51 -0.1,-1.53 -0.13,-2.04 -2.21,1.48 -4.73,2.4 -7.42,2.23 -1.09,-0.78 -2.18,-1.54 -3.26,-2.28 -1.24,-2.4 -0.77,-4.97 0.07,-7.4 3.24,-2.1 6.87,-3.28 10.72,-3.5 -2.69,-2.66 -6.43,-1.59 -9.55,-0.6 -0.23,-1.21 -0.43,-2.43 -0.62,-3.63 m 4.15,12.69 c 1.64,0.05 3.29,0 4.95,-0.09 0.19,-1.52 0.36,-3.03 0.53,-4.54 -2.77,0.11 -5.87,1.3 -5.48,4.63 z" />
  <path
     style="fill:#0d1428"
     inkscape:connector-curvature="0"
     id="path330"
     d="m 929.00323,184.35323 c 1.97,0.03 3.95,0.05 5.95,0.02 -0.07,6.19 -0.04,12.38 -0.01,18.57 -2,-0.03 -3.98,-0.03 -5.96,0.01 0.11,-6.2 0.07,-12.4 0.02,-18.6 z" />
  <path
     style="fill:#0d1428"
     inkscape:connector-curvature="0"
     id="path332"
     d="m 949.83323,184.35323 c 1.96,0.01 3.94,0.01 5.93,0 0.28,4.7 -1.03,9.77 1.22,14.16 1.39,-0.35 2.75,-0.77 4.13,-1.22 0.12,-4.31 0.13,-8.63 0.03,-12.95 1.97,0.02 3.94,0.01 5.93,-0.01 0.06,6.2 0.08,12.41 -0.01,18.62 -1.69,-0.03 -3.37,-0.04 -5.03,-0.01 0.04,-0.72 0.14,-2.15 0.19,-2.87 -1.24,1 -2.47,1.99 -3.71,2.97 -10.95,1.79 -8.56,-11.86 -8.68,-18.69 z" />
  <path
     style="fill:#0d1428"
     inkscape:connector-curvature="0"
     id="path334"
     d="m 971.63323,202.93323 c 0.02,-6.21 -0.01,-12.42 0.02,-18.62 1.65,0.03 3.32,0.05 5.01,0.06 -0.03,0.84 -0.08,2.54 -0.1,3.39 0.88,-1.1 1.79,-2.17 2.71,-3.24 0.91,-0.11 2.72,-0.34 3.63,-0.45 -0.01,1.76 0.02,3.52 0.1,5.29 -1.61,0.28 -3.22,0.59 -4.8,0.9 -1.1,4.14 -0.56,8.46 -0.59,12.69 -2.01,-0.03 -4,-0.04 -5.98,-0.02 z" />
  <path
     style="fill:#0d1428"
     inkscape:connector-curvature="0"
     id="path336"
     d="m 21.183228,209.91323 c 1.53,0.03 3.08,0.07 4.62,0.1 -0.05,1.34 -0.09,2.68 -0.14,4.03 3.14,0.05 6.3,-0.03 9.38,-0.68 -0.01,-0.84 -0.03,-2.53 -0.04,-3.38 1.57,0 3.14,0.01 4.72,0.04 0.09,2.05 0.16,4.1 0.21,6.15 -3.2,4.78 -9.45,2.97 -14.28,3.34 0.04,0.65 0.11,1.94 0.15,2.58 -1.57,0 -3.14,0.01 -4.71,0.03 0.06,-0.67 0.18,-2.01 0.24,-2.68 -1.14,0.04 -2.28,0.07 -3.42,0.12 -0.52,-1.87 -1.02,-3.73 -1.51,-5.59 1.61,0.01 3.22,0.04 4.84,0.08 -0.03,-1.39 -0.05,-2.77 -0.06,-4.14 z" />
  <path
     style="fill:#0d1428"
     inkscape:connector-curvature="0"
     id="path338"
     d="m 27.473228,231.18323 c 1.13,-3.55 2.85,-7.28 6.94,-7.99 6.16,1.8 6.31,9.15 4.54,14.19 -1.09,-0.14 -3.26,-0.42 -4.35,-0.56 0.75,-2.72 2.4,-6.12 -0.3,-8.31 -1.85,2.97 -2.98,6.42 -5.59,8.86 -7.24,0.3 -9.1,-7.58 -6.69,-13.11 1.24,0.46 2.51,0.83 3.81,1.11 -0.17,2.02 -0.28,4.04 -0.32,6.07 0.49,-0.06 1.47,-0.2 1.96,-0.26 z" />
  <path
     style="fill:#0d1428"
     inkscape:connector-curvature="0"
     id="path340"
     d="m 26.633228,256.47323 c -10.77,-3.69 -4.9,-19.97 5.97,-17.08 -0.04,4.24 -0.13,8.5 0.05,12.74 3.84,-2.27 3.18,-7.23 2.28,-10.91 1.54,-0.1 3.08,-0.19 4.62,-0.19 2.88,8.43 -2.89,19.87 -12.92,15.44 m 1.61,-4.39 c 0,-2.58 -0.08,-5.17 -0.26,-7.74 -4.16,1.46 -4.22,6.69 0.26,7.74 z" />
  <path
     style="fill:#0d1428"
     inkscape:connector-curvature="0"
     id="path342"
     d="m 14.173228,256.34323 c 1.66,0.02 3.32,0.02 4.98,0.02 0.01,2.28 -0.01,4.56 -0.01,6.84 6.85,-0.01 13.71,0 20.57,0 0.01,1.97 0.03,3.94 0.06,5.92 -6.91,-0.11 -13.81,0 -20.71,-0.07 0.02,2.29 0.06,4.59 0.06,6.88 -1.65,-0.02 -3.3,-0.01 -4.95,0.04 0.07,-6.54 0.06,-13.09 0,-19.63 z" />
  <path
     style="fill:#0d1428"
     inkscape:connector-curvature="0"
     id="path344"
     d="m 644.96323,358.31323 -0.2,-0.9 c 1.96,0.49 4.51,-0.83 6.04,0.87 -0.07,25.7 -0.07,51.41 -0.01,77.11 -2.24,-0.03 -4.49,-0.05 -6.72,-0.07 0.06,-25.74 0.1,-51.47 -0.02,-77.21 l 0.91,0.2 z" />
  <path
     style="fill:#0d1428"
     inkscape:connector-curvature="0"
     id="path346"
     d="m 761.51323,385.90323 c 0.56,-0.81 1.13,-1.61 1.71,-2.41 0.9,-0.01 2.72,-0.04 3.62,-0.05 0.9,1.42 1.16,3.12 1.36,4.77 -1,0.47 -1.99,0.96 -2.96,1.48 -1.04,-0.3 -2.07,-0.59 -3.1,-0.87 -0.23,-0.98 -0.43,-1.95 -0.63,-2.92 z" />
  <path
     style="fill:#0d1428"
     inkscape:connector-curvature="0"
     id="path348"
     d="m 957.15323,384.36323 c 1.47,-0.46 2.95,-0.87 4.48,-1.19 0.75,1.12 1.48,2.27 2.2,3.45 -0.36,0.66 -1.08,1.99 -1.44,2.66 -1.98,0.24 -3.95,0.02 -5.63,-1.11 0.1,-0.95 0.29,-2.86 0.39,-3.81 z" />
  <path
     style="fill:#0d1428"
     inkscape:connector-curvature="0"
     id="path350"
     d="m 1023.1032,384.41323 c 0.56,-0.29 1.68,-0.88 2.24,-1.17 1.09,0.38 2.18,0.76 3.29,1.15 0.1,0.92 0.28,2.77 0.37,3.69 -1.7,1.23 -3.71,1.5 -5.72,1.15 -0.32,-0.62 -0.96,-1.88 -1.28,-2.51 0.28,-0.57 0.83,-1.73 1.1,-2.31 z" />
  <path
     style="fill:#0d1428"
     inkscape:connector-curvature="0"
     id="path352"
     d="m 739.81323,384.98323 c 6.44,0.01 12.88,0.01 19.33,0.01 -0.03,1.66 -0.05,3.32 -0.07,5 -2.2,-0.07 -4.39,-0.12 -6.57,-0.18 0.12,6.8 -0.03,13.61 0.11,20.42 -2.01,0.03 -4.01,0.05 -6,0.1 0.07,-6.83 0.01,-13.65 0.03,-20.47 -2.28,0.02 -4.55,0.05 -6.81,0.1 -0.02,-1.67 -0.02,-3.33 -0.02,-4.98 z" />
  <path
     style="fill:#0d1428"
     inkscape:connector-curvature="0"
     id="path354"
     d="m 871.16323,385.03323 c 6.51,-0.09 13.03,-0.03 19.55,-0.03 0,1.64 0.01,3.3 0.03,4.96 -2.3,-0.04 -4.6,-0.09 -6.89,-0.1 0.12,6.81 0.04,13.62 0.09,20.43 -2,-0.03 -3.98,-0.04 -5.95,-0.03 0.12,-6.81 -0.01,-13.62 0.1,-20.42 -2.31,0.03 -4.62,0.09 -6.92,0.13 0.02,-1.65 0.02,-3.3 -0.01,-4.94 z" />
  <path
     style="fill:#0d1428"
     inkscape:connector-curvature="0"
     id="path356"
     d="m 715.55323,388.85323 c 3.46,-1.84 7.15,-3.38 11.17,-3.03 0.03,8.14 -0.06,16.29 0.05,24.44 -1.94,-0.01 -3.87,0 -5.78,0.03 0.11,-6.42 0.01,-12.84 0.11,-19.26 -1.64,0.79 -3.25,1.6 -4.86,2.42 -0.24,-1.55 -0.45,-3.07 -0.69,-4.6 z" />
  <path
     style="fill:#0d1428"
     inkscape:connector-curvature="0"
     id="path358"
     d="m 832.78323,388.41323 c 1.77,-0.51 3.53,-1.02 5.33,-1.49 0.03,1.69 0.04,3.37 0.08,5.07 1.31,-0.01 2.63,0 3.97,0.02 -0.03,1.43 -0.04,2.86 -0.05,4.3 -1.35,-0.02 -2.7,-0.03 -4.03,-0.03 -0.06,3.1 0.04,6.22 0.62,9.29 1.14,-0.03 2.29,-0.05 3.44,-0.06 -0.02,1.57 -0.03,3.16 -0.03,4.75 -9.32,3.04 -10.67,-7.35 -9.48,-14 -0.65,0.01 -1.95,0.03 -2.6,0.03 -0.01,-0.97 -0.03,-2.92 -0.03,-3.9 2.11,-0.34 3.21,-1.83 2.78,-3.98 z" />
  <path
     style="fill:#0d1428"
     inkscape:connector-curvature="0"
     id="path360"
     d="m 1009.6732,388.40323 c 1.79,-0.49 3.58,-0.97 5.4,-1.43 0.02,1.65 0.03,3.3 0.07,4.97 1.33,0.02 2.68,0.05 4.04,0.09 -0.04,1.43 -0.05,2.87 -0.05,4.32 -1.36,-0.04 -2.7,-0.07 -4.02,-0.11 -0.09,3.15 0.01,6.31 0.66,9.41 0.82,-0.05 2.46,-0.16 3.28,-0.21 0.05,1.6 0.05,3.2 0.09,4.82 -2.32,0.17 -4.64,0.12 -6.94,-0.12 -0.7,-0.81 -1.4,-1.6 -2.08,-2.39 -0.6,-3.8 -0.56,-7.66 -0.47,-11.5 -0.65,0.01 -1.95,0.03 -2.61,0.04 -0.01,-1.06 -0.03,-3.18 -0.04,-4.24 0.66,-0.02 1.97,-0.05 2.63,-0.06 0,-1.2 0.01,-2.4 0.04,-3.59 z" />
  <path
     style="fill:#0d1428"
     inkscape:connector-curvature="0"
     id="path362"
     d="m 761.84323,391.93323 c 1.95,0.02 3.91,0.04 5.88,0.05 0.01,6.11 -0.05,12.21 0.05,18.32 -1.99,-0.03 -3.97,-0.04 -5.94,-0.04 0.03,-6.11 0,-12.22 0.01,-18.33 z" />
  <path
     style="fill:#0d1428"
     inkscape:connector-curvature="0"
     id="path364"
     d="m 771.99323,391.97323 c 1.65,0.01 3.29,0 4.96,0.02 -0.06,0.59 -0.18,1.77 -0.25,2.37 1.69,-1.3 3.59,-2.29 5.58,-3.05 1.38,0.48 2.79,0.95 4.21,1.41 0.2,0.51 0.6,1.53 0.8,2.04 1.78,-1.54 3.85,-2.69 6.05,-3.54 8.95,1.7 5.8,12.58 6.43,19.06 -1.94,-0.02 -3.86,-0.02 -5.76,0 -0.74,-4.63 2,-10.83 -2.21,-14.2 -0.72,0.36 -2.14,1.07 -2.86,1.42 -0.36,4.25 -0.28,8.52 -0.15,12.78 -1.95,-0.03 -3.88,-0.04 -5.81,-0.04 0.08,-4.4 0.22,-8.81 -0.27,-13.19 -1.45,-0.08 -2.9,-0.13 -4.33,-0.13 -1.16,4.37 -0.57,8.92 -0.62,13.38 -1.93,-0.03 -3.86,-0.05 -5.77,-0.04 0.03,-6.1 0.08,-12.2 0,-18.29 z" />
  <path
     style="fill:#0d1428"
     inkscape:connector-curvature="0"
     id="path366"
     d="m 805.28323,407.86323 c -4.33,-6.03 -1.12,-16.47 7.08,-16.48 6.6,-0.62 9.26,6.14 8.65,11.69 -4.21,-0.01 -8.42,-0.08 -12.62,0.08 2.33,3.69 6.98,3.55 10.64,2.22 0.37,1.48 0.69,2.98 0.97,4.51 -4.98,0.71 -10.51,1.38 -14.72,-2.02 m 4.6,-11.59 c -0.42,0.9 -0.84,1.79 -1.26,2.69 2.2,0 4.41,0.04 6.63,0.07 -0.02,-0.66 -0.05,-1.97 -0.07,-2.62 -0.96,-0.46 -1.91,-0.9 -2.86,-1.33 -0.83,0.39 -1.64,0.79 -2.44,1.19 z" />
  <path
     style="fill:#0d1428"
     inkscape:connector-curvature="0"
     id="path368"
     d="m 846.91323,395.28323 c 6.25,-10.12 23.58,2.34 14.64,12.55 -3.85,3.29 -12.91,3.9 -14.5,-0.74 -3.74,-1.21 -3.13,-8.55 -1.13,-12.1 l 0.99,0.29 m 5.81,0.79 c -4.02,1.82 -3.44,10.23 1.54,10.44 5.11,-1.09 4.45,-12.21 -1.54,-10.44 z" />
  <path
     style="fill:#0d1428"
     inkscape:connector-curvature="0"
     id="path370"
     d="m 891.65323,407.47323 c -5.26,-6.26 0.1,-17.88 8.77,-15.93 5.75,0.37 7.17,6.81 6.72,11.59 -4.17,-0.1 -8.35,-0.08 -12.52,-0.05 1.04,1.07 2.11,2.12 3.21,3.14 2.61,-0.02 5.21,-0.15 7.82,-0.39 0.12,1.34 0.26,2.68 0.41,4.03 -4.81,0.57 -10.83,1.82 -14.41,-2.39 m 4.21,-11.37 c -0.11,0.72 -0.33,2.16 -0.44,2.88 2.1,0 4.2,0 6.31,0.01 0.07,-0.43 0.2,-1.29 0.27,-1.72 -1.49,-2.22 -3.93,-2.34 -6.14,-1.17 z" />
  <path
     style="fill:#0d1428"
     inkscape:connector-curvature="0"
     id="path372"
     d="m 910.63323,391.96323 c 1.64,0.01 3.28,0.01 4.95,0.03 0.02,0.87 0.05,2.62 0.07,3.49 0.63,-1.01 1.26,-2.01 1.91,-3.01 1.46,-0.38 2.9,-0.8 4.38,-1.19 -0.02,1.84 -0.03,3.7 -0.04,5.56 -1.79,0.32 -3.52,0.81 -5.21,1.42 -0.17,3.98 -0.19,7.97 -0.08,11.97 -1.99,0.02 -3.98,0.04 -5.95,0.07 -0.01,-6.12 -0.01,-12.23 -0.03,-18.34 z" />
  <path
     style="fill:#0d1428"
     inkscape:connector-curvature="0"
     id="path374"
     d="m 924.79323,391.93323 c 1.73,0.03 3.47,0.07 5.22,0.12 -0.21,0.66 -0.63,1.98 -0.84,2.63 1.82,-1.59 3.95,-2.72 6.26,-3.46 1.92,0.79 3.78,1.79 5.15,3.42 1.31,-2.14 3.62,-2.7 5.91,-3.33 8.5,2.12 5.54,12.5 6.1,18.92 -1.93,0.03 -3.86,0.05 -5.77,0.07 -0.78,-4.57 2.12,-11.02 -2.29,-14.17 -0.72,0.35 -2.16,1.05 -2.88,1.4 -0.15,4.23 -0.13,8.47 -0.03,12.71 -1.95,0.02 -3.88,0.03 -5.8,0.06 -0.11,-4.47 0.54,-9.03 -0.62,-13.4 -1.43,0.01 -2.85,0.04 -4.26,0.07 -0.58,4.41 -0.41,8.87 -0.32,13.31 -1.94,-0.01 -3.87,-0.01 -5.78,0 0.04,-6.12 -0.01,-12.24 -0.05,-18.35 z" />
  <path
     style="fill:#0d1428"
     inkscape:connector-curvature="0"
     id="path376"
     d="m 957.01323,392.00323 c 1.96,-0.01 3.92,-0.04 5.9,-0.06 0.01,6.11 -0.02,12.22 0.03,18.34 -2,-0.02 -3.98,-0.02 -5.95,0 0.08,-6.1 0.06,-12.19 0.02,-18.28 z" />
  <path
     style="fill:#0d1428"
     inkscape:connector-curvature="0"
     id="path378"
     d="m 967.17323,391.99323 c 1.81,-0.01 3.63,0.01 5.46,0.05 -0.03,0.72 -0.1,2.16 -0.13,2.88 0.69,-0.82 1.39,-1.63 2.1,-2.44 1.27,-0.38 2.53,-0.76 3.82,-1.12 9.11,1.52 5.95,12.46 6.51,18.94 -2,-0.03 -3.98,-0.04 -5.96,-0.03 0.1,-4.14 0.13,-8.28 -0.03,-12.41 -0.79,-0.55 -1.56,-1.09 -2.32,-1.62 -0.72,0.29 -2.17,0.87 -2.9,1.16 -0.89,4.24 -0.6,8.59 -0.6,12.9 -2,-0.03 -3.99,-0.04 -5.97,-0.06 0.11,-6.09 0.07,-12.17 0.02,-18.25 z" />
  <path
     style="fill:#0d1428"
     inkscape:connector-curvature="0"
     id="path380"
     d="m 989.74323,392.69323 c 3.81,-0.93 7.8,-1.62 11.60997,-0.2 5.49,4.13 2.58,12.03 3.44,17.9 -1.94,-0.27 -4.53,0.53 -5.61997,-1.6 -2.55,1.87 -5.68,1.87 -8.64,1.24 -6.1,-5.42 0.39,-13.13 7.23,-12.08 0.42,-0.33 1.26,-1 1.68,-1.33 -3.06,-1.06 -6.36,-0.91 -9.29,0.41 -0.18,-1.45 -0.31,-2.89 -0.41,-4.34 m 3.89,10.65 c 0.24,0.96 0.5,1.94 0.77,2.91 1.22,0.01 2.45,0.03 3.69,0.06 0.51,-1.5 0.91,-3.03 1.31,-4.55 -2.05,0.05 -4.1,0.32 -5.77,1.58 z" />
  <path
     style="fill:#0d1428"
     inkscape:connector-curvature="0"
     id="path382"
     d="m 1022.5932,391.97323 c 1.99,0.01 4,0.02 6.01,0.04 -0.06,6.07 -0.08,12.15 0,18.22 -1.99,0.02 -3.98,0.03 -5.94,0.05 -0.03,-6.1 -0.03,-12.21 -0.07,-18.31 z" />
  <path
     style="fill:#0d1428"
     inkscape:connector-curvature="0"
     id="path384"
     d="m 1039.6332,391.84323 c 6.55,-1.75 13.11,4.7 11.32,11.29 -1.18,9.39 -17.27,9.85 -18.75,0.6 -1.72,-5.21 1.92,-11.25 7.43,-11.89 m -0.62,4.24 c -2.12,3.74 -2.11,10.47 3.49,10.69 4.43,-3.13 3.15,-12.82 -3.49,-10.69 z" />
  <path
     style="fill:#0d1428"
     inkscape:connector-curvature="0"
     id="path386"
     d="m 1054.1732,392.01323 c 1.79,-0.01 3.59,-0.03 5.41,-0.03 0,0.73 0,2.2 0.01,2.93 0.6,-0.81 1.21,-1.62 1.82,-2.43 11.61,-4.61 11.26,10.48 10.51,17.81 -1.98,-0.02 -3.95,-0.03 -5.9,-0.03 -0.81,-4.62 2.16,-11.04 -2.35,-14.2 -0.71,0.31 -2.12,0.94 -2.83,1.25 -1.13,4.23 -0.7,8.64 -0.73,12.97 -2,-0.02 -3.98,-0.02 -5.95,-0.02 0.07,-6.08 0.06,-12.17 0.01,-18.25 z" />
  <path
     style="fill:#0d1428"
     inkscape:connector-curvature="0"
     id="path388"
     d="m 381.03323,482.66323 c 1.14,-0.44 2.28,-0.86 3.43,-1.27 0.52,0.29 1.58,0.86 2.11,1.14 0.31,0.54 0.93,1.64 1.25,2.18 -0.31,0.57 -0.93,1.72 -1.24,2.29 -0.54,0.27 -1.6,0.81 -2.13,1.07 -1.16,-0.42 -2.31,-0.84 -3.46,-1.25 -0.03,-1.4 -0.01,-2.78 0.04,-4.16 z" />
  <path
     style="fill:#0d1428"
     inkscape:connector-curvature="0"
     id="path390"
     d="m 531.85323,482.56323 c 1.17,-0.39 2.34,-0.77 3.52,-1.15 0.61,0.32 1.83,0.95 2.44,1.27 0.11,1.4 0.14,2.81 0.11,4.24 -1.19,0.36 -2.38,0.74 -3.55,1.12 -0.62,-0.29 -1.85,-0.89 -2.46,-1.18 -0.1,-1.44 -0.11,-2.88 -0.06,-4.3 z" />
  <path
     style="fill:#0d1428"
     inkscape:connector-curvature="0"
     id="path392"
     d="m 542.01323,481.89323 c 1.97,0.05 3.94,0.07 5.92,0.09 -0.02,8.83 -0.04,17.66 -0.01,26.5 -1.98,-0.02 -3.95,-0.02 -5.92,-0.01 0.08,-8.86 0.04,-17.72 0.01,-26.58 z" />
  <path
     style="fill:#0d1428"
     inkscape:connector-curvature="0"
     id="path394"
     d="m 359.06323,483.20323 c 6.51,-0.01 13.02,0 19.53,-0.02 -0.03,1.63 -0.02,3.27 0,4.92 -2.3,-0.02 -4.6,-0.05 -6.9,-0.05 0.07,6.77 -0.03,13.55 0.07,20.32 -1.98,0.05 -3.97,0.1 -5.94,0.14 0.06,-6.83 -0.03,-13.65 0.07,-20.48 -2.29,0.01 -4.58,0.04 -6.87,0.06 0.01,-1.64 0.03,-3.27 0.04,-4.89 z" />
  <path
     style="fill:#0d1428"
     inkscape:connector-curvature="0"
     id="path396"
     d="m 494.01323,483.20323 c 5.23,0 10.46,-0.02 15.69,0 0.01,1.62 0.02,3.25 0.04,4.89 -3.29,-0.06 -6.57,-0.01 -9.86,-0.04 0.01,1.84 0,3.68 -0.02,5.54 3.01,-0.04 6.03,-0.02 9.06,-0.07 0,1.65 0.01,3.31 0.04,4.98 -3.01,-0.04 -6.02,-0.01 -9.02,-0.03 -0.04,3.33 -0.05,6.66 0,9.99 -1.99,0 -3.97,0 -5.95,0.01 0.09,-8.43 0.08,-16.85 0.02,-25.27 z" />
  <path
     style="fill:#0d1428"
     inkscape:connector-curvature="0"
     id="path398"
     d="m 451.65323,486.67323 c 1.84,-0.46 3.66,-0.98 5.5,-1.47 0,1.68 -0.02,3.36 -0.03,5.07 1.32,-0.07 2.65,-0.12 3.99,-0.15 0.01,1.44 0.02,2.89 0.05,4.35 -1.35,0 -2.7,0 -4.04,0.01 -0.13,3.19 0,6.4 0.75,9.53 0.82,-0.01 2.45,-0.03 3.27,-0.04 -0.01,1.49 -0.01,3 -0.01,4.51 -2.69,0.55 -5.39,0.21 -7.99,-0.58 -1.94,-4.22 -1.52,-8.9 -1.51,-13.41 -0.67,-0.01 -2.01,-0.04 -2.68,-0.06 0.02,-1.06 0.06,-3.19 0.08,-4.25 0.65,0.01 1.96,0.04 2.61,0.05 0,-0.89 0,-2.67 0.01,-3.56 z" />
  <path
     style="fill:#0d1428"
     inkscape:connector-curvature="0"
     id="path400"
     d="m 399.08323,490.21323 c 2.99,-0.66 5.96,0.04 8.06,2.34 10.91,-9.11 13.7,8.14 11.78,15.97 -1.93,-0.05 -3.85,-0.07 -5.77,-0.1 0.04,-4.47 0.36,-8.97 -0.43,-13.39 -1.29,-0.05 -2.57,-0.09 -3.85,-0.13 -1.76,4.3 -0.73,9.04 -0.93,13.55 -1.92,0.02 -3.85,0.04 -5.77,0.08 -0.01,-4.45 0.29,-8.93 -0.37,-13.35 -1.32,-0.18 -2.64,-0.25 -3.96,-0.25 -1.63,4.35 -0.77,9.06 -0.87,13.59 -1.94,-0.04 -3.87,-0.06 -5.79,-0.07 0.07,-6.11 0.06,-12.22 -0.05,-18.32 1.69,0.03 3.38,0.06 5.07,0.08 -0.04,0.66 -0.12,1.97 -0.16,2.62 1,-0.88 2.02,-1.75 3.04,-2.62 z" />
  <path
     style="fill:#0d1428"
     inkscape:connector-curvature="0"
     id="path402"
     d="m 424.49323,505.50323 c -4.75,-5.95 -0.2,-16.62 7.88,-15.91 6.02,0.01 8.48,6.58 7.8,11.7 -3.89,-0.02 -7.78,-0.03 -11.67,-0.08 0.05,0.5 0.16,1.5 0.22,2 3.05,1.65 6.53,1.19 9.82,0.76 0.2,1.3 0.39,2.63 0.58,3.95 -4.85,1.02 -11.26,2.13 -14.63,-2.42 m 4.57,-11.37 c -0.24,1.04 -0.48,2.08 -0.71,3.13 2.28,-0.03 4.56,-0.09 6.85,-0.11 -0.45,-1.07 -0.9,-2.13 -1.33,-3.18 -1.61,-0.01 -3.22,0.03 -4.81,0.16 z" />
  <path
     style="fill:#0d1428"
     inkscape:connector-curvature="0"
     id="path404"
     d="m 472.71323,490.03323 c 5.93,-0.91 11.42,4.81 10.07,10.72 -0.53,8.34 -13.21,10.91 -17.66,4.13 -3.98,-5.94 0,-15.12 7.59,-14.85 m -1.45,14.46 c 6.82,2.24 7.79,-10.81 1.29,-10.44 -4.1,1.53 -3.8,7.61 -1.29,10.44 z" />
  <path
     style="fill:#0d1428"
     inkscape:connector-curvature="0"
     id="path406"
     d="m 512.51323,491.22323 c 4.25,-1.53 8.94,-1.77 13.07,0.28 3.11,5.17 1.61,11.29 2.06,16.98 -1.89,-0.54 -6.04,1.37 -5.44,-1.81 -2.63,1.95 -5.77,2.8 -8.84,1.36 -0.78,-0.88 -1.56,-1.76 -2.33,-2.62 -0.29,-2.33 0.07,-4.61 1.08,-6.71 2.86,-1.49 5.91,-2.61 9.18,-2.58 -0.1,-0.51 -0.29,-1.53 -0.38,-2.04 -2.69,-0.14 -5.37,0.13 -7.89,1.09 -0.18,-1.33 -0.34,-2.64 -0.51,-3.95 m 4.26,9.64 c 0.04,1.17 0.08,2.35 0.11,3.54 1.34,0.1 2.7,0.09 4.06,0.03 0.48,-1.58 0.88,-3.19 1.21,-4.8 -1.81,0.33 -3.61,0.73 -5.38,1.23 z" />
  <path
     style="fill:#0d1428"
     inkscape:connector-curvature="0"
     id="path408"
     d="m 580.93323,491.01323 c 1.57,-0.5 3.16,-0.93 4.77,-1.32 0,1.89 0.02,3.78 0.08,5.68 -0.74,-0.05 -2.21,-0.14 -2.95,-0.19 -4.64,2.82 -2.12,8.85 -2.68,13.3 -2.01,-0.02 -4,-0.03 -5.99,-0.03 0.07,-6.09 0.09,-12.19 -0.01,-18.28 1.61,0.01 3.23,0 4.86,-0.03 0.19,0.88 0.58,2.65 0.77,3.53 0.29,-0.67 0.86,-2 1.15,-2.66 z" />
  <path
     style="fill:#0d1428"
     inkscape:connector-curvature="0"
     id="path410"
     d="m 589.37323,505.71323 c -4.81,-5.72 -0.84,-16.11 6.99,-16.14 6.43,-0.52 9.35,6.15 8.63,11.7 -4.19,0.01 -8.39,-0.07 -12.57,0.11 2.31,4.03 7.24,3.07 11.09,2.61 0.1,0.97 0.3,2.89 0.4,3.85 -4.8,1.53 -10.8,1.87 -14.54,-2.13 m 5.06,-11.83 c -0.65,1.06 -1.28,2.14 -1.9,3.22 2.3,0.06 4.6,0.12 6.91,0.15 -0.21,-1.06 -0.42,-2.12 -0.61,-3.16 -1.47,-0.12 -2.94,-0.19 -4.4,-0.21 z" />
  <path
     style="fill:#0d1428"
     inkscape:connector-curvature="0"
     id="path412"
     d="m 381.03323,490.18323 c 1.96,0.01 3.93,0 5.91,-0.02 -0.05,6.11 -0.02,12.21 -0.01,18.32 -1.98,-0.02 -3.96,-0.04 -5.93,-0.06 0.07,-6.08 0.05,-12.16 0.03,-18.24 z" />
  <path
     style="fill:#0d1428"
     inkscape:connector-curvature="0"
     id="path414"
     d="m 531.82323,490.18323 c 1.96,0.01 3.93,0.01 5.9,0.01 0.02,6.08 -0.04,12.17 0.03,18.26 -1.99,0 -3.97,0 -5.94,0.03 0.1,-6.1 0.04,-12.2 0.01,-18.3 z" />
  <path
     style="fill:#0d1428"
     inkscape:connector-curvature="0"
     id="path416"
     d="m 552.17323,490.15323 c 1.99,0.03 3.99,0.03 5.99,0.02 -0.12,4.52 -0.26,9.09 0.71,13.54 1.61,-0.14 3.22,-0.31 4.83,-0.56 0.19,-4.32 0.17,-8.65 0.11,-12.97 1.97,0.01 3.94,0.01 5.93,0.01 0,6.09 -0.05,12.18 0.02,18.27 -1.66,0.01 -3.31,0.03 -4.96,0.07 -0.07,-0.74 -0.21,-2.22 -0.28,-2.96 -1.87,3.45 -6.18,3.76 -9.54,2.48 -4.2,-5.04 -2.41,-11.92 -2.81,-17.9 z" />
</svg>
